<svg xmlns="http://www.w3.org/2000/svg" width="381.609" height="268.601" viewBox="0 0 381.609 268.601"><defs><style>.a{fill:#a1e1ff;}</style></defs><path class="a" d="M83.615,94.374c-2.707,0-5.414,2.236-5.414,6,0,6.356,6.474,10.24,15.3,10.24,10.358,0,16.479-5.179,16.479-12.83,0-8.592-12.948-9.534-12.948-16.479a3.863,3.863,0,0,1,3.413-3.884c1.295,0,2.236.471,2.236,1.648,0,1.059-.942,1.766-.942,3.531a4.174,4.174,0,0,0,4.237,4c3.884,0,5.532-2.825,5.532-6,0-4.826-3.884-8.122-12.477-8.122-8.828,0-16.243,3.767-16.243,11.182,0,8.828,11.653,9.887,11.653,16.832,0,2.119-.942,3.178-2.59,3.178-2.119,0-3.178-2-3.178-4.944C88.677,95.9,86.793,94.374,83.615,94.374ZM125.4,110.382c7.415,0,12.359-4.59,14.831-7.769,1.177-1.53,1.883-2.472,1.883-3.767a1.677,1.677,0,0,0-1.648-1.648c-.706,0-1.177.353-2,1.177-1.53,1.53-2.472,2.472-4.473,2.472-2.119,0-3.767-1.766-3.767-4.826,0-11.3,9.416-35.194,9.416-45.081,0-5.885-3.884-9.181-10-9.181-6.709,0-12.948,3.884-12.948,6.356,0,.942.589,1.412,1.648,1.412,2.59,0,4.59,1.883,4.59,5.768,0,18.244-9.063,33.31-9.063,44.022C113.865,105.438,117.514,110.382,125.4,110.382Zm20.128-49.907a6.458,6.458,0,0,0,6.591,6.356c4.473,0,8.71-5.061,8.71-9.769,0-3.531-2.354-6.238-6.591-6.238C149.765,50.823,145.528,55.767,145.528,60.475Zm4.708,49.907c7.415,0,12.477-4.59,14.949-7.769,1.177-1.53,1.883-2.472,1.883-3.767A1.677,1.677,0,0,0,165.42,97.2c-.706,0-1.177.353-2,1.177-1.53,1.53-2.472,2.472-4.473,2.472-2.119,0-3.884-1.766-3.884-4.826,0-7.769,3.767-15.184,3.767-19.892,0-2-1.412-3.06-4-3.06-6.827,0-13.065,1.766-13.065,4.355,0,1.53.706,1.766.706,3.767,0,4.237-3.884,11.888-3.884,19.421C138.583,106.027,142.468,110.382,150.236,110.382Zm76.508,0c7.415,0,12.477-4.59,14.949-7.769,1.177-1.53,1.883-2.472,1.883-3.767a1.677,1.677,0,0,0-1.648-1.648c-.706,0-1.177.353-2,1.177-1.53,1.53-2.472,2.472-4.473,2.472-2.119,0-3.767-1.177-3.767-4.237,0-4.708,3.3-10.476,3.3-15.537,0-5.179-3.178-8-10-8-8.592,0-14.831,6.474-15.772,7.415-.353-1.766-2.354-7.415-9.652-7.415-8.946,0-15.066,7.062-16.243,8.357a27.382,27.382,0,0,0,.942-5.3c0-2-1.412-3.06-4-3.06-6.827,0-13.183,1.766-13.183,4.355,0,1.53.824,1.766.824,3.767,0,6.356-4.944,22.246-4.944,26.6,0,2,.942,2.59,2.472,2.59,1.766,0,6.356-.589,9.887-.589,1.766,0,2.59-.471,2.59-2.472,0-4.59,2.825-14.713,5.061-18.6,2.825-4.944,6.121-7.18,8.239-7.18,1.766,0,2.59,1.412,2.59,3.531,0,4.944-4.355,15.772-4.355,22.717,0,2,.942,2.59,2.354,2.59,2,0,6.591-.589,10.24-.589,1.766,0,2.472-.471,2.472-2.472,0-5.65,2.707-14.478,5.179-19.186,2.354-4.59,4.944-6.591,7.18-6.591,1.766,0,2.825,1.059,2.825,3.3,0,4.59-3.767,9.3-3.767,16.479C215.915,106.262,220.035,110.382,226.744,110.382Zm76.508,0c7.415,0,12.477-4.59,14.949-7.769,1.177-1.53,1.883-2.472,1.883-3.767a1.677,1.677,0,0,0-1.648-1.648c-.706,0-1.177.353-2,1.177-1.53,1.53-2.472,2.472-4.473,2.472-2.119,0-3.767-1.177-3.767-4.237,0-4.708,3.3-10.476,3.3-15.537,0-5.179-3.178-8-10-8-8.592,0-14.831,6.474-15.772,7.415-.353-1.766-2.354-7.415-9.652-7.415-8.946,0-15.066,7.062-16.243,8.357a27.382,27.382,0,0,0,.942-5.3c0-2-1.412-3.06-4-3.06-6.827,0-13.183,1.766-13.183,4.355,0,1.53.824,1.766.824,3.767,0,6.356-4.944,22.246-4.944,26.6,0,2,.942,2.59,2.472,2.59,1.766,0,6.356-.589,9.887-.589,1.766,0,2.589-.471,2.589-2.472,0-4.59,2.825-14.713,5.061-18.6,2.825-4.944,6.121-7.18,8.239-7.18,1.766,0,2.59,1.412,2.59,3.531,0,4.944-4.355,15.772-4.355,22.717,0,2,.942,2.59,2.354,2.59,2,0,6.591-.589,10.24-.589,1.766,0,2.472-.471,2.472-2.472,0-5.65,2.707-14.478,5.179-19.186,2.354-4.59,4.944-6.591,7.18-6.591,1.766,0,2.825,1.059,2.825,3.3,0,4.59-3.767,9.3-3.767,16.479C292.423,106.262,296.543,110.382,303.252,110.382Zm30.132-19.774c0-6.945,4.708-12.712,8.239-12.712,1.883,0,2.825.942,2.825,2.707C344.449,83.427,340.094,89.313,333.385,90.607Zm8.828,12.241c-5.65,0-8.828-3.178-8.828-7.3,11.77-.942,19.657-7.415,19.657-14.125,0-5.061-3.649-8.592-11.653-8.592-15.655,0-24.836,10.24-24.836,21.658,0,11.3,7.768,16.243,18.833,16.243,11.417,0,17.185-5.768,21.069-9.887,1.766-1.883,2.354-2.825,2.354-4a1.357,1.357,0,0,0-1.412-1.412,4.514,4.514,0,0,0-2.472,1.412C352.335,98.965,348.215,102.849,342.213,102.849ZM101.094,186.36c0,6.356-4.12,13.654-9.181,13.654-2.472,0-4.12-1.53-4.12-4.355,0-7.18,3.767-15.772,3.767-20.951,0-2-1.412-3.06-4-3.06-6.827,0-13.065,1.766-13.065,4.355,0,1.53.824,1.766.824,3.767,0,4.237-1.295,10.947-3.3,14.831-1.648,3.3-4.237,5.414-6.945,5.414-2.236,0-3.413-2-3.413-4.355,0-7.533,4-15.772,4-20.951,0-2-1.412-3.06-4-3.06-6.827,0-13.065,1.766-13.065,4.355,0,1.53.706,1.766.706,3.767,0,5.179-3.884,12.006-3.884,19.774,0,5.179,3.884,9.416,10.711,9.416,9.769,0,15.772-5.885,17.773-7.886a15.174,15.174,0,0,0,13.889,7.886c15.3,0,24.129-17.538,24.129-28.72,0-5.532-2.59-8.592-7.3-8.592-4.12,0-7.062,2.707-7.062,6.709C97.563,182.476,101.094,182.947,101.094,186.36Zm40.49-6.121c0,4.59-1.648,12.359-3.06,15.419-1.53,3.531-3.884,5.532-6.121,5.532-2.59,0-4-2.472-4-5.532,0-6.474,2.943-18.833,9.652-18.833C140.525,176.826,141.585,178.121,141.585,180.24Zm22.952,20.951c1.177-1.53,1.883-2.472,1.883-3.767a1.677,1.677,0,0,0-1.648-1.648c-.706,0-1.177.353-2,1.177-1.53,1.53-2.472,2.472-4.473,2.472-2.119,0-4-1.766-4-4.826,0-9.181,4.12-18.362,4.12-21.187a1.559,1.559,0,0,0-1.766-1.766c-2.707,0-7.769,2.236-9.77,2.236-1.883,0-3.649-2.236-9.887-2.236-16.832,0-23.894,11.888-23.894,23.541,0,9.063,5.65,13.771,12.594,13.771,8.592,0,14.831-6.238,14.831-6.238a9.5,9.5,0,0,0,9.063,6.238C157,208.96,162.065,204.369,164.537,201.191Zm22.246-23.659c1.412,0,2.707-1.648,2.707-4,0-.942-.706-1.295-1.648-1.295-3.531,0-4-.824-4-2.354,0-2,1.648-6.827,1.648-9.416a1.787,1.787,0,0,0-1.883-1.883c-1.059,0-2,.706-3.178,2.589-3.06,4.944-8.828,11.064-15.066,11.064-1.295,0-2,2.236-2,3.413,0,2.119,3.178,1.177,3.178,2.707,0,5.885-3.649,11.77-3.649,19.3,0,6.238,3.649,11.3,12.124,11.3,7.3,0,15.066-6.709,18.127-10.711a4.065,4.065,0,0,0,.942-2.354,1.461,1.461,0,0,0-1.53-1.412c-.706,0-1.295.471-2.119,1.177-1.883,1.53-4.237,3.767-6.591,3.767-2.825,0-4.59-1.295-4.59-4.826,0-3.884,1.53-9.887,2.472-13.3C182.546,178.474,183.841,177.532,186.783,177.532Zm20.6,11.653c0-6.945,4.708-12.712,8.239-12.712,1.883,0,2.825.942,2.825,2.707C218.446,182.005,214.091,187.89,207.382,189.185Zm8.828,12.241c-5.65,0-8.828-3.178-8.828-7.3,11.77-.942,19.657-7.415,19.657-14.125,0-5.061-3.649-8.592-11.653-8.592-15.655,0-24.836,10.24-24.836,21.658,0,11.3,7.769,16.243,18.833,16.243,11.417,0,17.185-5.768,21.069-9.887,1.766-1.883,2.354-2.825,2.354-4a1.357,1.357,0,0,0-1.412-1.412,4.514,4.514,0,0,0-2.472,1.412C226.332,197.542,222.213,201.426,216.21,201.426ZM247.4,187.537c1.766-3.3,3.3-4.826,4-5.061a4.59,4.59,0,0,0,4.944,4.473c4.826,0,7.651-4.944,7.651-9.3,0-3.531-2.119-5.532-5.414-5.532-6.356,0-9.652,5.768-10.358,7.18a20.968,20.968,0,0,0,.706-4.59c0-2-1.412-3.06-4-3.06-6.827,0-13.183,1.766-13.183,4.355,0,1.53.824,1.766.824,3.767,0,6.356-4.944,22.246-4.944,26.6,0,2,.942,2.59,2.472,2.59,1.766,0,6.356-.589,9.887-.589,1.766,0,2.589-.471,2.589-2.472C242.575,201.309,245.283,191.539,247.4,187.537Zm33.075,12.006a43.139,43.139,0,0,1,3.3-14.831c1.53-3.531,4-5.768,6.238-5.768,2.59,0,3.649,1.412,3.649,4.473,0,6.356-2.825,19.539-9.416,19.539C281.771,202.957,280.476,201.662,280.476,199.543Zm-13.183-19.774c-.118,2.707-.235,6.591-2.825,18.95-3.649,17.42-6.945,24.012-6.945,34.605,0,5.414,3.531,9.181,9.77,9.181,7.769,0,13.183-4.473,13.183-6.356,0-.942-.589-1.412-1.648-1.412-2.59,0-4.826-1.648-4.826-5.532,0-5.179,2.472-17.891,3.884-23.423a13.725,13.725,0,0,0,9.063,3.178c14.478,0,22.364-14.125,22.364-24.365,0-8-4.708-12.948-12.124-12.948-7.18,0-12.83,4.708-13.889,6.356a15.03,15.03,0,0,0,.353-3.3c0-2-1.412-3.06-4-3.06-6.827,0-13.183,1.766-13.183,4.355C266.47,177.532,267.293,177.768,267.293,179.769ZM348.51,208.96c7.415,0,12.359-4.59,14.831-7.769,1.177-1.53,1.883-2.472,1.883-3.767a1.677,1.677,0,0,0-1.648-1.648c-.706,0-1.177.353-2,1.177-1.53,1.53-2.472,2.472-4.473,2.472-2.119,0-3.767-1.766-3.767-4.826,0-6.238,4.12-15.3,4.12-19.892,0-2-1.413-3.06-4-3.06-6.827,0-13.183,1.766-13.183,4.355,0,1.53.824,1.766.824,3.767a33.322,33.322,0,0,1-4.12,14.949c-1.53,2.825-4.473,4.826-7.062,4.826a2.751,2.751,0,0,1-2.825-2.943c0-8.592,4.355-16.479,4.355-21.893,0-2-1.412-3.06-4-3.06-6.827,0-13.183,1.766-13.183,4.355,0,1.53.824,1.766.824,3.767,0,4.237-4,12.83-4,20.128a8.837,8.837,0,0,0,9.3,9.063c10.593,0,17.773-7.18,17.773-7.18S339.211,208.96,348.51,208.96Zm37.077-31.427c1.412,0,2.707-1.648,2.707-4,0-.942-.706-1.295-1.648-1.295-3.531,0-4-.824-4-2.354,0-2,1.648-6.827,1.648-9.416a1.787,1.787,0,0,0-1.883-1.883c-1.059,0-2,.706-3.178,2.589-3.06,4.944-8.828,11.064-15.066,11.064-1.295,0-2,2.236-2,3.413,0,2.119,3.178,1.177,3.178,2.707,0,5.885-3.649,11.77-3.649,19.3,0,6.238,3.649,11.3,12.124,11.3,7.3,0,15.066-6.709,18.127-10.711a4.065,4.065,0,0,0,.942-2.354,1.461,1.461,0,0,0-1.53-1.412c-.706,0-1.295.471-2.119,1.177-1.883,1.53-4.237,3.767-6.591,3.767-2.825,0-4.59-1.295-4.59-4.826,0-3.884,1.53-9.887,2.472-13.3C381.349,178.474,382.644,177.532,385.587,177.532Z" transform="matrix(0.978, -0.208, 0.208, 0.978, -53.11, 40.838)"/></svg>